<?xml version="1.0" encoding="UTF-8"?>
<svg id="Layer_1" xmlns="http://www.w3.org/2000/svg" version="1.1" viewBox="0 0 2000 925">
  <!-- Generator: Adobe Illustrator 29.8.1, SVG Export Plug-In . SVG Version: 2.1.1 Build 2)  -->
  <defs>
    <style>
      .st0, .st1 {
        fill: #1f317f;
      }

      .st2 {
        fill: #fff;
      }

      .st1 {
        display: none;
      }

      .st3 {
        fill: #da2727;
      }
    </style>
  </defs>
  <rect class="st1" y="-531.82" width="2000" height="2000"/>
  <g>
    <g>
      <path class="st0" d="M657.86,732.59h69.32c1.39,31.65,17.68,52.11,46.53,52.11,31.63,0,44.67-25.59,44.67-54.44v-194.95h69.32v194.03c0,88.4-57.23,117.72-114,117.72s-116.79-28.85-115.85-114.46h.01Z"/>
      <path class="st0" d="M928.65,535.31h80.03l85.15,173.55,87.01-173.55h79.57v307.09h-75.84v-161.92l-67,161.92h-48.4l-64.21-160.06v160.06h-76.31v-307.09Z"/>
    </g>
    <path class="st3" d="M76.88,878.28h0l-17.69,24.94s51.28-26.79,54.83-28.56c21.29-10.6,41.64-20.82,67.31-28.7,109.93-33.76,230.84-33.74,340.92-2.85.3-194.64,24.3-391.38,75.56-578.96,21.49-78.67,51.59-154.09,77.9-231.01L76.89,878.28h-.01Z"/>
    <polygon class="st0" points="1327.45 536.39 1940.82 536.39 1785.79 843.08 1327.45 843.08 1327.45 536.39"/>
    <g>
      <path class="st2" d="M1362.57,614.87h62.61c48.54,0,60.57,28.13,60.57,49,0,22.68-14.51,48.09-60.57,48.09h-25.64v52.63h-36.98v-149.72h.01ZM1425.17,679.97c14.97,0,23.37-3.63,23.37-16.11,0-11.57-7.26-17.01-23.59-17.01h-25.41v33.12h25.64-.01Z"/>
      <path class="st2" d="M1496.64,614.87h62.61c48.54,0,60.57,26.32,60.57,49.45s-8.17,41.97-33.12,47.41l-4.76.22,31.08,52.63h-41.28l-30.17-52.63h-7.94v52.63h-36.98v-149.72h0ZM1559.25,681.57c14.97,0,23.37-4.76,23.37-17.24,0-11.35-7.26-17.47-23.59-17.47h-25.41v34.7h25.64-.01Z"/>
      <path class="st2" d="M1630.71,689.96c.45-47.87,37.43-77.36,79.63-77.36s78.27,30.62,78.04,77.36c-.45,45.37-34.48,76.91-78.27,76.91s-79.85-30.4-79.4-76.91ZM1710.11,734.87c24.05,0,40.84-18.38,41.06-44.91-.22-27.22-17.24-45.37-41.06-45.37s-42.19,18.14-42.19,45.37c.22,26.31,18.14,44.91,42.19,44.91Z"/>
    </g>
  </g>
</svg>